<svg xmlns="http://www.w3.org/2000/svg" xmlns:xlink="http://www.w3.org/1999/xlink" width="611.055" height="563.202" viewBox="0 0 611.055 563.202">
  <defs>
    <linearGradient id="linear-gradient" x1="0.5" x2="0.5" y2="1" gradientUnits="objectBoundingBox">
      <stop offset="0" stop-color="#fd6b3b"/>
      <stop offset="1" stop-color="#fe936f"/>
    </linearGradient>
    <linearGradient id="linear-gradient-2" x1="0.5" x2="0.5" y2="1" gradientUnits="objectBoundingBox">
      <stop offset="0" stop-color="#1765a6"/>
      <stop offset="1" stop-color="#fd6b3b"/>
    </linearGradient>
    <linearGradient id="linear-gradient-4" x1="0.5" x2="0.5" y2="1" gradientUnits="objectBoundingBox">
      <stop offset="0" stop-color="#0b2238"/>
      <stop offset="1" stop-color="#183a5c"/>
    </linearGradient>
  </defs>
  <g id="Group_5788" data-name="Group 5788" transform="translate(-730.136 -112.767)">
    <g id="Group_5632" data-name="Group 5632" transform="translate(781.605 629.372)">
      <circle id="Ellipse_169" data-name="Ellipse 169" cx="23.299" cy="23.299" r="23.299" transform="translate(18.819 0)" fill="url(#linear-gradient)"/>
      <path id="Path_783" data-name="Path 783" d="M351.209,181.721c-2.4-.787-5.092-1.508-7.977-2.185a22.143,22.143,0,0,1,.678,2.906q3.475.885,6.555,1.835c8.743,2.8,10.469,5.027,10.4,5.573s-2.317,2.185-11.453,2.885a160.266,160.266,0,0,1-29-1.268A161.961,161.961,0,0,1,292,185.676c-8.743-2.82-10.469-5.027-10.4-5.6.174-1.442,6.555-3.06,18.162-3.082a19.9,19.9,0,0,1,1.377-2.644c-11.322-.131-21.638,1.054-22.184,5.4-.351,2.926,3.65,5.683,12.239,8.458a165.362,165.362,0,0,0,28.913,5.9,189.589,189.589,0,0,0,22.49,1.508c2.492,0,4.852,0,7.016-.219,9.005-.585,13.578-2.3,13.923-5.224S359.951,184.518,351.209,181.721Z" transform="translate(-278.929 -163.186)" fill="#6f5fa6"/>
    </g>
    <g id="Group_5787" data-name="Group 5787" transform="translate(730.136 112.767)">
      <g id="Delivery" transform="translate(0 29.468)">
        <g id="character" transform="translate(0 0)">
          <path id="Path_526" data-name="Path 526" d="M310.388,341.008c1.914-2.642,2.2-10.914,1.787-17.827s5.362-11.453,5.362-11.453h0l.379-.648-12.432,2.834a.235.235,0,0,0,0,.111c-1.787,12.908-1.581,34.626-1.581,35.512.19-1.867.269-3.16.269-3.16A21.088,21.088,0,0,0,310.388,341.008Z" transform="translate(127.371 95.074)" fill="#f0ce78"/>
          <path id="Path_527" data-name="Path 527" d="M304.332,368.928a28.046,28.046,0,0,0,10.788-12.655c3.971-10.282,6.122-15.818,6.122-15.818s-1.313-4.651-.234-6a1.582,1.582,0,0,1,1.091-.569c1.282-.221,1.977-.665,2.309-1.581l3.939-10.2a4.4,4.4,0,0,0-.76-3.354,14.805,14.805,0,0,0-3.623-4.223,16.941,16.941,0,0,0-5.314-2.99h0s-5.758,4.539-5.362,11.453.126,15.186-1.787,17.828a21.085,21.085,0,0,1-6.185,5.394s-.08,1.282-.269,3.161a72.937,72.937,0,0,1-1.581,10.156,79.216,79.216,0,0,0-1.581,7.988,1.581,1.581,0,0,0,2.452,1.4Z" transform="translate(126.198 95.342)" fill="#0b2238"/>
          <path id="Path_528" data-name="Path 528" d="M410.395,230.53c-3.259,0-10.184,4.508-15.6,8.811s-12.449,2.23-12.449,2.23h-.743l9.491,8.545h.111c11.563-6,29.184-18.712,29.9-19.234-1.581.936-2.72,1.581-2.72,1.581a20.975,20.975,0,0,0-7.989-1.933Z" transform="translate(172.587 48.208)" fill="#f0ce78"/>
          <path id="Path_529" data-name="Path 529" d="M437.536,224.8a27.871,27.871,0,0,0-16.562-1.581l-16.467,4.129s-3.038,3.746-4.745,3.654a1.581,1.581,0,0,1-1.107-.57,2.5,2.5,0,0,0-2.642-.965l-10.6,2.674c-1.076.3-1.819,1.581-2.293,2.547a14.964,14.964,0,0,0-1.376,5.41,17,17,0,0,0,.633,6.059h0s7.023,2.088,12.449-2.23,12.338-8.859,15.6-8.811a20.974,20.974,0,0,1,7.916,1.927s1.091-.665,2.72-1.581a74.778,74.778,0,0,1,9.219-4.557,77.507,77.507,0,0,0,7.4-3.354,1.581,1.581,0,0,0-.142-2.752Z" transform="translate(172.638 43.606)" fill="#0b2238"/>
          <path id="Path_530" data-name="Path 530" d="M382.512,237.53H380.06C381.119,237.578,381.959,237.562,382.512,237.53Z" transform="translate(171.685 52.28)" fill="#2755a3"/>
          <path id="Path_531" data-name="Path 531" d="M442.33,283.681l-9.491-8.545H427.35a91.452,91.452,0,0,1-15.613-1.9c-7.909-1.487-18.729-3.922-32.317-7.72a59.571,59.571,0,0,0-47.344,7.2s5.236-6.6,11.5-22.146,18.982-30.055,7.909-54.795c-9.57-21.449-29.279-22.889-29.279-22.889s-19.093,15.264-26.543,57.578c-4.745,27.35-.965,67.86,5.473,73.745s27.192,9.95,69.062,4.634a188.569,188.569,0,0,0,72.189-25.051Z" transform="translate(121.342 14.671)" fill="url(#linear-gradient-2)"/>
          <path id="Path_532" data-name="Path 532" d="M303.267,301.822c-.351-4.9-.49-10.013-.569-13.525a187.172,187.172,0,0,1,1.581-42.251c7.387-42.313,9.013-46.553,9.013-46.553s33.727-21.223,33.838-21.354c16.4-18.159,21.8-3.021,24.487,4.4,10.234,28.156-13.177,68.018-19.409,83.568-5.2,12.924-1.977,51.361-15.818,98.863C330.6,384.82,320,396.4,319.435,396.731c-3.654,2.072-13.145-.838-13.145-.838S304.627,321.373,303.267,301.822Z" transform="translate(126.362 12.729)" fill="url(#linear-gradient-2)"/>
          <path id="Path_533" data-name="Path 533" d="M315.974,398.774a37.519,37.519,0,0,1-9.57-1.581l-.665-.206v-.7c0-.743-1.724-74.726-3.069-94.023h0c-.332-4.935-.49-10.108-.569-13.556a186.939,186.939,0,0,1,1.581-42.441c7.324-41.934,9-46.569,9.064-46.742l.111-.3.269-.174c11.152-7.023,32.19-20.263,33.725-21.26,6.074-6.707,11.183-9.491,15.628-8.684,5.932,1.171,8.7,8.811,10.361,13.382,8.668,23.822-6.122,55.538-14.964,74.488-1.8,3.891-3.369,7.244-4.429,9.87-1.977,4.935-2.737,14.095-3.7,25.7-1.581,18.618-3.638,44.1-12.07,73.065-5.853,20.074-16.641,31.889-17.4,32.333a9.064,9.064,0,0,1-4.3.824Zm-8.337-3.277c2.942.819,9.238,2.151,11.721.728,1.139-.936,11.072-12.525,16.514-31.194,8.384-28.773,10.472-54.146,12.006-72.764,1.013-12.228,1.739-21.07,3.828-26.274,1.076-2.674,2.657-6.042,4.476-9.95,8.7-18.681,23.285-49.954,14.933-72.925-1.581-4.287-4.1-11.295-8.954-12.243-3.686-.712-8.368,2.025-13.92,8.162-.111.143-.19.221-33.74,21.323-.427,1.471-2.468,9.491-8.874,46.11a184.063,184.063,0,0,0-1.581,42.013c0,3.5.221,8.621.569,13.508h0c1.25,18.413,2.832,85.829,3.021,93.5Z" transform="translate(126.008 12.394)" fill="#fff"/>
          <path id="Path_534" data-name="Path 534" d="M259.792,152.625a10.52,10.52,0,0,1,3.161,7.624,14.933,14.933,0,0,1-1.787,8.1,51.664,51.664,0,0,1-13.872-.617c-7.577-1.36-11.531-4.508-12.228-5.442-2.009-2.752-.284-3.5-.284-3.5s-.981-2.23.158-3.575c.838-.981,2.61-.174,2.61-.174a2.076,2.076,0,0,1,.981-2.183c1.265-.6,5.173,2.784,7.64,3.16a24.93,24.93,0,0,0,4.287.364s-2.863-2.516-1.581-3.528,3.575.459,6.154.379a24.911,24.911,0,0,0,4.762-.617Z" transform="translate(86.76 2.811)" fill="#ef6744"/>
          <path id="Path_535" data-name="Path 535" d="M50.78,293.36l-17.207,9.634,14.236,77.113,17.779-.918a219.681,219.681,0,0,0,9.491-40.1,87.27,87.27,0,0,0,.712-20.327Z" transform="translate(-29.908 84.764)" fill="#0b2238"/>
          <path id="Path_536" data-name="Path 536" d="M63.957,318.257h0c-.126,0-3.322-.126-8.684-3.891-5.9-4.16-7.023-8.257-7.071-8.428a.965.965,0,1,1,1.867-.49s1.059,3.654,6.327,7.339c4.745,3.385,7.609,3.543,7.64,3.543a.981.981,0,0,1,.918,1,.964.964,0,0,1-1,.936Z" transform="translate(-21.415 91.376)" fill="#fff"/>
          <path id="Path_537" data-name="Path 537" d="M62.807,322.891h0c-.126,0-3.322-.111-8.684-3.891-5.9-4.145-7.023-8.241-7.071-8.415a.965.965,0,0,1,1.867-.49s1.059,3.638,6.327,7.324c4.745,3.4,7.609,3.543,7.64,3.543a.981.981,0,0,1,.918,1,.965.965,0,0,1-1,.936Z" transform="translate(-22.084 94.082)" fill="#fff"/>
          <path id="Path_538" data-name="Path 538" d="M61.752,327.531h0c-.143,0-3.322-.111-8.7-3.891-5.9-4.145-7.023-8.241-7.071-8.415a.965.965,0,1,1,1.867-.49s1.059,3.638,6.327,7.339c4.745,3.385,7.609,3.543,7.64,3.543a.965.965,0,0,1,0,1.914Z" transform="translate(-22.707 96.781)" fill="#fff"/>
          <path id="Path_539" data-name="Path 539" d="M60.886,332.17h0c-.126,0-3.306-.126-8.684-3.891-5.9-4.16-7.023-8.241-7.071-8.415a.981.981,0,0,1,.7-1.187.965.965,0,0,1,1.171.7S48.057,323,53.324,326.7c4.745,3.385,7.609,3.543,7.64,3.543a.965.965,0,0,1,.918,1,.949.949,0,0,1-1,.936Z" transform="translate(-23.201 99.478)" fill="#fff"/>
          <path id="Path_540" data-name="Path 540" d="M38.286,298.24,51.305,367.1a4.651,4.651,0,0,0,4.16,3.764L68.31,372l-1.581,4.745a3.606,3.606,0,0,1-3.48,2.515H50.592a3.638,3.638,0,0,1-3.543-2.847L31.342,305.121a3.654,3.654,0,0,1,1.772-3.97Z" transform="translate(-31.255 87.603)" fill="#1765a6"/>
          <path id="Path_541" data-name="Path 541" d="M155.356,220.178s-8.842,10.769-22.573,38.979c-8.668,17.779-15.55,34.8-15.55,34.8L44.47,342.579l24.992,25.4,79.486-44.75a49.812,49.812,0,0,0,20.373-20.9l52.053-93.514Z" transform="translate(-23.568 35.577)" fill="url(#linear-gradient-4)"/>
          <path id="Path_542" data-name="Path 542" d="M74.249,311.779a.937.937,0,0,1-.7-.3L54.618,291.606a.936.936,0,0,1,0-1.36.949.949,0,0,1,1.36,0l18.982,19.9a.949.949,0,0,1-.7,1.581Z" transform="translate(-17.834 82.785)" fill="#fff"/>
          <path id="Path_543" data-name="Path 543" d="M127.79,286l-17.4,10.615,48.515,63L173.869,350a217.865,217.865,0,0,0-11.626-39.546,87.521,87.521,0,0,0-9.491-17.985Z" transform="translate(14.786 80.481)" fill="#0b2238"/>
          <path id="Path_544" data-name="Path 544" d="M140.261,300.582a30.136,30.136,0,0,1-3.021-.143c-7.181-.68-10.184-3.67-10.314-3.8a.949.949,0,0,1,0-1.36.965.965,0,0,1,1.36,0s2.72,2.626,9.112,3.161c5.869.554,8.368-.712,8.4-.712a.965.965,0,1,1,.9,1.693,14.7,14.7,0,0,1-6.438,1.158Z" transform="translate(24.24 85.719)" fill="#fff"/>
          <path id="Path_545" data-name="Path 545" d="M141.61,305.189a30.145,30.145,0,0,1-3.021-.143c-7.2-.665-10.2-3.67-10.329-3.8a.965.965,0,1,1,1.377-1.345c.08,0,2.768,2.626,9.13,3.16,5.853.554,8.368-.7,8.383-.712a.965.965,0,0,1,1.3.4.949.949,0,0,1-.379,1.3,14.694,14.694,0,0,1-6.458,1.142Z" transform="translate(24.994 88.373)" fill="#fff"/>
          <path id="Path_546" data-name="Path 546" d="M143.014,309.748a20.692,20.692,0,0,1-3.021-.158c-7.181-.665-10.2-3.654-10.329-3.781a.981.981,0,0,1,0-1.377.965.965,0,0,1,1.36,0s2.752,2.626,9.13,3.16c5.869.554,8.368-.7,8.383-.712a.965.965,0,0,1,1.3.411.936.936,0,0,1-.379,1.282,14.237,14.237,0,0,1-6.438,1.171Z" transform="translate(25.836 91.043)" fill="#fff"/>
          <path id="Path_547" data-name="Path 547" d="M144.49,314.174a22.963,22.963,0,0,1-3.021-.143c-7.181-.68-10.2-3.67-10.314-3.8a.965.965,0,0,1,1.36-1.36s2.737,2.642,9.13,3.16c5.869.554,8.368-.7,8.4-.712a.966.966,0,1,1,.9,1.708A14.7,14.7,0,0,1,144.49,314.174Z" transform="translate(26.733 93.656)" fill="#fff"/>
          <path id="Path_548" data-name="Path 548" d="M112.457,292.67l45.256,53.086a4.745,4.745,0,0,0,5.489,1.2l11.721-5.394,1.028,4.9a3.638,3.638,0,0,1-1.771,3.907l-10.993,6.217a3.654,3.654,0,0,1-4.493-.712l-50.3-55.965c-1.076-1.2-2.293-2.832-.411-4.318Z" transform="translate(12.814 84.363)" fill="#1765a6"/>
          <path id="Path_549" data-name="Path 549" d="M175.933,217.394s64.048,21.813,72.178,46.7S153.044,342.1,153.044,342.1L128.067,335.7s8.7-14.6,26.5-32.887a260.831,260.831,0,0,1,27.4-24.133s-28.173-1.756-52.2-12.386c-20.785-9.206-24.376-35.369-14.806-48.609s18.223-17.1,18.223-17.1Z" transform="translate(14.509 30.783)" fill="url(#linear-gradient-4)"/>
          <path id="Path_550" data-name="Path 550" d="M153.514,343.519l-26.571-6.849.648-1.107a203.565,203.565,0,0,1,26.653-33.06,263.708,263.708,0,0,1,25.518-22.714c-7.466-.728-30.26-3.512-50.033-12.274a33.788,33.788,0,0,1-19.124-22.62c-2.674-9.87-1.171-20.39,3.923-27.428,9.6-13.3,18.255-17.242,18.618-17.4l.364-.174,43.121,17c2.943,1.013,64.6,22.32,72.764,47.3,8.273,25.31-91.3,76.987-95.558,79.09Zm-23.585-8.067,23.348,6.027c3.069-1.581,27.207-14.236,50.176-29.47,32.016-21.181,47.264-37.5,44.1-47.218-7.909-24.139-70.928-45.873-71.562-46.079h0l-42.374-16.7c-1.693.87-9.27,5.236-17.5,16.609-4.745,6.581-6.137,16.467-3.623,25.8a31.984,31.984,0,0,0,18.049,21.354c23.617,10.455,51.6,12.291,51.868,12.306l2.626.174-2.107,1.581a261.092,261.092,0,0,0-27.274,24.043A210.731,210.731,0,0,0,129.928,335.451Z" transform="translate(14.151 30.382)" fill="#fff"/>
          <path id="Path_551" data-name="Path 551" d="M160.568,251.017a.965.965,0,0,1-.253-1.9l11.389-2.99A.965.965,0,0,1,172.2,248l-11.389,2.99Z" transform="translate(43.413 57.266)" fill="#fff"/>
          <path id="Path_552" data-name="Path 552" d="M166.983,254.727h-.206l-7.1-1.581a.965.965,0,1,1,.411-1.882l7.1,1.581a.981.981,0,0,1,.728,1.155.949.949,0,0,1-.933.727Z" transform="translate(42.99 60.251)" fill="#fff"/>
          <path id="Path_553" data-name="Path 553" d="M188.49,255.905s8.1-58.938,9.838-77.193-6.169-33.472-15.5-35.132-26.559-3.16-26.559-3.16-20.057-6.327-28.725,21.466S110,251.809,110,251.809a50.744,50.744,0,0,0,44.67,7.815,97,97,0,0,1,33.82-3.718Z" transform="translate(14.559 -4.58)" fill="#1765a6"/>
          <path id="Path_554" data-name="Path 554" d="M351.79,129.974c-21.133-27.476-45.873-3.16-45.873-3.16a77.84,77.84,0,0,1-8.177,2.815c-8.368,1.787-13.872,11.689-14.933,23.3-21.086,21.162-30.006,21.084-30.006,21.084l4.571,15.154s12.891,2.357,35.622-4.223c.174.158.316.332.474.506a44.532,44.532,0,0,1,3.733,4.381,80.28,80.28,0,0,1-12.338,6.027,150.368,150.368,0,0,1-45.113,9.364l2.878,15.486s8.32,3.7,35.843,3.278a121.137,121.137,0,0,0,35.828-5.678c6.485,12.512,11.354,23.426,11.354,23.426A91.24,91.24,0,0,1,358.62,233c46.347-3.16,62.26-62.624,62.26-62.624S375.153,160.345,351.79,129.974Z" transform="translate(90.051 -17.913)" fill="#ffe0d5"/>
          <path id="Path_555" data-name="Path 555" d="M252.153,173.537a10.583,10.583,0,0,1,2.025,7.988,14.758,14.758,0,0,1-2.878,7.767,51.09,51.09,0,0,1-13.651-2.5c-7.324-2.4-10.8-6.059-11.354-7.087-1.581-2.99.19-3.5.19-3.5s-.68-2.341.649-3.512c.965-.87,2.61.19,2.61.19a2.213,2.213,0,0,1,1.265-2.025c1.265-.442,4.745,3.464,7.135,4.208a24.17,24.17,0,0,0,4.192.936s-2.5-2.878-1.091-3.7,3.48.936,6.042,1.219a24.229,24.229,0,0,0,4.872.016Z" transform="translate(81.838 13.473)" fill="#ef6744"/>
          <path id="Path_556" data-name="Path 556" d="M276.559,107.745c-7.909-1.882-7.909,11.848-7.909,11.848h0q.095.665.234,1.282a19.647,19.647,0,0,0,6.122,9.491,3.16,3.16,0,0,0,3.053.633l1.581-.49s.554,1.93.819,3.322c.537,2.832,3.4,2.958,6.074,1.581a12.068,12.068,0,0,0,3.385-3.16h0A15.343,15.343,0,0,1,286,129.879C281,125.81,284.152,109.549,276.559,107.745Z" transform="translate(106.865 -23.333)" fill="#ef6744"/>
          <path id="Path_557" data-name="Path 557" d="M383.551,67.562c-25.943-23.285-60.488-11.326-73.233,1.377-11.457,11.42-6.333,24.645-9.306,31.83s-5.173,11.88-16.4,11.785-18.6,4.556-21.133,15.264c-3.464,14.537,8.225,22.592,8.463,22.746h0s.095-13.731,7.909-11.848c7.592,1.8,4.448,18.064,9.4,22.146a15.343,15.343,0,0,0,3.923,2.373c8.716,3.417,15.3-6.47,24.407-10.44,4.745-2.088,10.219,1.945,18.159-3.038,13.9-8.731,13.935-30.276,29.5-25.468C385.909,130.617,418.32,98.74,383.551,67.562Z" transform="translate(103.481 -54.316)" fill="#0b2238"/>
          <path id="Path_558" data-name="Path 558" d="M270.905,118.5a.505.505,0,0,1-.316-.126.443.443,0,0,1-.158-.364v-4.318c0-.269.174-.442.49-.474a.49.49,0,0,1,.474.49v3.746l1.5-.206a.479.479,0,0,1,.126.949l-2.057.3Z" transform="translate(107.901 -20.045)"/>
          <path id="Path_559" data-name="Path 559" d="M272.668,119.649h-.4a.49.49,0,0,1-.442-.506.474.474,0,0,1,.522-.442c1.392.095,1.581-.474,1.581-.49a.479.479,0,0,1,.918.269S274.55,119.649,272.668,119.649Z" transform="translate(108.715 -17.331)"/>
          <path id="Path_560" data-name="Path 560" d="M274.043,114.225a2.673,2.673,0,0,1-1.471-.459.49.49,0,0,1,.554-.791h0a1.677,1.677,0,0,0,1.154.253,1.962,1.962,0,0,0,1.219-.936.479.479,0,0,1,.791.537,2.816,2.816,0,0,1-1.851,1.345Z" transform="translate(109.064 -20.701)"/>
          <line id="Line_22" data-name="Line 22" y1="5.347" x2="2.325" transform="translate(446.823 200.627)" fill="none" stroke="#2755a3" stroke-linecap="round" stroke-linejoin="round" stroke-width="1"/>
          <line id="Line_23" data-name="Line 23" y1="5.347" x2="2.309" transform="translate(398.767 184.857)" fill="none" stroke="#2755a3" stroke-linecap="round" stroke-linejoin="round" stroke-width="1"/>
          <line id="Line_24" data-name="Line 24" x1="5.805" y1="0.522" transform="translate(481.022 183.197)" fill="none" stroke="#2755a3" stroke-linecap="round" stroke-linejoin="round" stroke-width="1"/>
          <line id="Line_25" data-name="Line 25" y1="3.495" x2="4.666" transform="translate(415.567 172.93)" fill="none" stroke="#2755a3" stroke-linecap="round" stroke-linejoin="round" stroke-width="1"/>
          <line id="Line_26" data-name="Line 26" x1="4.271" y1="3.939" transform="translate(422.052 109.326)" fill="none" stroke="#2755a3" stroke-linecap="round" stroke-linejoin="round" stroke-width="1"/>
          <line id="Line_27" data-name="Line 27" y1="0.379" x2="5.821" transform="translate(434.09 128.055)" fill="none" stroke="#2755a3" stroke-linecap="round" stroke-linejoin="round" stroke-width="1"/>
          <line id="Line_28" data-name="Line 28" y1="3.495" x2="4.651" transform="translate(411.502 117.25)" fill="none" stroke="#2755a3" stroke-linecap="round" stroke-linejoin="round" stroke-width="1"/>
          <line id="Line_29" data-name="Line 29" x1="3.591" y1="2.23" transform="translate(424.852 188.511)" fill="none" stroke="#2755a3" stroke-linecap="round" stroke-linejoin="round" stroke-width="1"/>
          <line id="Line_30" data-name="Line 30" x2="1.187" y2="4.065" transform="translate(478.112 194.728)" fill="none" stroke="#2755a3" stroke-linecap="round" stroke-linejoin="round" stroke-width="1"/>
          <line id="Line_31" data-name="Line 31" x1="4.571" y1="0.016" transform="translate(410.473 194.966)" fill="none" stroke="#2755a3" stroke-linecap="round" stroke-linejoin="round" stroke-width="1"/>
          <line id="Line_32" data-name="Line 32" x1="0.032" y1="4.571" transform="translate(430.136 206.054)" fill="none" stroke="#2755a3" stroke-linecap="round" stroke-linejoin="round" stroke-width="1"/>
          <line id="Line_33" data-name="Line 33" x1="1.676" y1="3.876" transform="translate(455.728 187.593)" fill="none" stroke="#2755a3" stroke-linecap="round" stroke-linejoin="round" stroke-width="1"/>
          <line id="Line_34" data-name="Line 34" x1="4.35" y2="1.36" transform="translate(440.37 187.056)" fill="none" stroke="#2755a3" stroke-linecap="round" stroke-linejoin="round" stroke-width="1"/>
          <line id="Line_35" data-name="Line 35" x1="2.547" y2="3.781" transform="translate(464.191 201.103)" fill="none" stroke="#2755a3" stroke-linecap="round" stroke-linejoin="round" stroke-width="1"/>
          <line id="Line_36" data-name="Line 36" x1="3.718" y1="2.025" transform="translate(488.821 168.959)" fill="none" stroke="#2755a3" stroke-linecap="round" stroke-linejoin="round" stroke-width="1"/>
          <line id="Line_37" data-name="Line 37" x1="2.61" y2="3.749" transform="translate(474.678 171.127)" fill="none" stroke="#2755a3" stroke-linecap="round" stroke-linejoin="round" stroke-width="1"/>
          <line id="Line_38" data-name="Line 38" x2="0.332" y2="4.556" transform="translate(504.211 155.784)" fill="none" stroke="#2755a3" stroke-linecap="round" stroke-linejoin="round" stroke-width="1"/>
          <line id="Line_39" data-name="Line 39" x1="4.967" y1="2.088" transform="translate(418.414 153.285)" fill="none" stroke="#2755a3" stroke-linecap="round" stroke-linejoin="round" stroke-width="1"/>
          <line id="Line_40" data-name="Line 40" x1="5.204" y2="1.392" transform="translate(487.697 159.232)" fill="none" stroke="#2755a3" stroke-linecap="round" stroke-linejoin="round" stroke-width="1"/>
          <line id="Line_41" data-name="Line 41" x1="3.084" y2="4.84" transform="translate(403.054 162.317)" fill="none" stroke="#2755a3" stroke-linecap="round" stroke-linejoin="round" stroke-width="1"/>
          <line id="Line_42" data-name="Line 42" x1="3.084" y2="4.84" transform="translate(463.717 155.689)" fill="none" stroke="#2755a3" stroke-linecap="round" stroke-linejoin="round" stroke-width="1"/>
          <line id="Line_43" data-name="Line 43" x1="0.427" y1="5.379" transform="translate(434.928 164.721)" fill="none" stroke="#2755a3" stroke-linecap="round" stroke-linejoin="round" stroke-width="1"/>
          <line id="Line_44" data-name="Line 44" x1="5.71" y1="0.522" transform="translate(444.261 168.865)" fill="none" stroke="#2755a3" stroke-linecap="round" stroke-linejoin="round" stroke-width="1"/>
          <line id="Line_45" data-name="Line 45" x1="2.484" y1="5.173" transform="translate(417.354 206.385)" fill="none" stroke="#2755a3" stroke-linecap="round" stroke-linejoin="round" stroke-width="1"/>
          <line id="Line_46" data-name="Line 46" x1="4.967" y1="2.088" transform="translate(397.154 125.823)" fill="none" stroke="#2755a3" stroke-linecap="round" stroke-linejoin="round" stroke-width="1"/>
          <line id="Line_47" data-name="Line 47" x1="4.967" y1="2.088" transform="translate(467.197 144.141)" fill="none" stroke="#2755a3" stroke-linecap="round" stroke-linejoin="round" stroke-width="1"/>
          <line id="Line_48" data-name="Line 48" x1="4.967" y1="2.088" transform="translate(447.267 155.435)" fill="none" stroke="#2755a3" stroke-linecap="round" stroke-linejoin="round" stroke-width="1"/>
          <line id="Line_49" data-name="Line 49" x1="4.903" y2="2.974" transform="translate(360.629 188.717)" fill="none" stroke="#2755a3" stroke-linecap="round" stroke-linejoin="round" stroke-width="1"/>
          <line id="Line_50" data-name="Line 50" y1="4.682" x2="1.945" transform="translate(405.016 137.845)" fill="none" stroke="#2755a3" stroke-linecap="round" stroke-linejoin="round" stroke-width="1"/>
          <line id="Line_51" data-name="Line 51" y1="4.682" x2="1.962" transform="translate(449.054 136.248)" fill="none" stroke="#2755a3" stroke-linecap="round" stroke-linejoin="round" stroke-width="1"/>
          <line id="Line_52" data-name="Line 52" x1="2.863" y1="4.223" transform="translate(391.301 139.459)" fill="none" stroke="#2755a3" stroke-linecap="round" stroke-linejoin="round" stroke-width="1"/>
          <line id="Line_53" data-name="Line 53" x1="4.682" y2="2.009" transform="translate(400.255 110.512)" fill="none" stroke="#2755a3" stroke-linecap="round" stroke-linejoin="round" stroke-width="1"/>
          <line id="Line_54" data-name="Line 54" x1="2.863" y1="4.223" transform="translate(383.472 179.59)" fill="none" stroke="#2755a3" stroke-linecap="round" stroke-linejoin="round" stroke-width="1"/>
          <line id="Line_55" data-name="Line 55" x1="2.863" y1="4.223" transform="translate(377.065 143.272)" fill="none" stroke="#2755a3" stroke-linecap="round" stroke-linejoin="round" stroke-width="1"/>
          <line id="Line_56" data-name="Line 56" x1="2.863" y1="4.24" transform="translate(436.605 142.243)" fill="none" stroke="#2755a3" stroke-linecap="round" stroke-linejoin="round" stroke-width="1"/>
          <line id="Line_57" data-name="Line 57" x1="1.329" y1="4.888" transform="translate(467.909 181.789)" fill="none" stroke="#2755a3" stroke-linecap="round" stroke-linejoin="round" stroke-width="1"/>
          <line id="Line_58" data-name="Line 58" x1="2.863" y1="4.223" transform="translate(423.317 129.051)" fill="none" stroke="#2755a3" stroke-linecap="round" stroke-linejoin="round" stroke-width="1"/>
          <line id="Line_59" data-name="Line 59" x1="1.613" y2="4.84" transform="translate(347.359 193.667)" fill="none" stroke="#2755a3" stroke-linecap="round" stroke-linejoin="round" stroke-width="1"/>
          <line id="Line_60" data-name="Line 60" x2="4.002" y2="3.164" transform="translate(383.772 193.715)" fill="none" stroke="#2755a3" stroke-linecap="round" stroke-linejoin="round" stroke-width="1"/>
          <line id="Line_61" data-name="Line 61" x1="1.629" y2="4.84" transform="translate(368.855 194.412)" fill="none" stroke="#2755a3" stroke-linecap="round" stroke-linejoin="round" stroke-width="1"/>
          <line id="Line_62" data-name="Line 62" x1="4.429" y2="3.638" transform="translate(366.577 154.74)" fill="none" stroke="#2755a3" stroke-linecap="round" stroke-linejoin="round" stroke-width="1"/>
          <line id="Line_63" data-name="Line 63" x1="4.429" y2="3.638" transform="translate(382.143 127.026)" fill="none" stroke="#2755a3" stroke-linecap="round" stroke-linejoin="round" stroke-width="1"/>
          <line id="Line_64" data-name="Line 64" x1="0.933" y2="5.015" transform="translate(354.397 161.984)" fill="none" stroke="#2755a3" stroke-linecap="round" stroke-linejoin="round" stroke-width="1"/>
          <line id="Line_65" data-name="Line 65" x1="0.933" y2="5.015" transform="translate(375.783 159.675)" fill="none" stroke="#2755a3" stroke-linecap="round" stroke-linejoin="round" stroke-width="1"/>
          <line id="Line_66" data-name="Line 66" x1="2.863" y1="4.24" transform="translate(387.173 157.603)" fill="none" stroke="#2755a3" stroke-linecap="round" stroke-linejoin="round" stroke-width="1"/>
          <rect id="Rectangle_194" data-name="Rectangle 194" width="85.402" height="75.674" transform="translate(197.108 140.994) rotate(-10.55)" fill="#fff"/>
          <path id="Path_561" data-name="Path 561" d="M170.081,224.89a.981.981,0,0,1-.949-.791l-13.857-74.345a.981.981,0,0,1,.158-.728.965.965,0,0,1,.617-.4L240.014,133a.965.965,0,0,1,1.124.775l13.857,74.345a.949.949,0,0,1-.158.712.936.936,0,0,1-.617.411l-83.964,15.634Zm-12.655-74.6L170.935,222.8l81.985-15.3-13.508-72.494Z" transform="translate(40.892 -8.543)" fill="#0b2238"/>
          <path id="Path_562" data-name="Path 562" d="M208.95,141.891,229.1,119.24l12.057,64.7-18.35,32.348Z" transform="translate(72.13 -16.542)" fill="#fff"/>
          <path id="Path_563" data-name="Path 563" d="M223.159,217.578H223a.981.981,0,0,1-.791-.775l-13.857-74.345a1.013,1.013,0,0,1,.221-.819L228.727,119a.936.936,0,0,1,.981-.284.949.949,0,0,1,.7.743l12.038,64.586a.855.855,0,0,1-.111.649L224,217.044A.964.964,0,0,1,223.159,217.578ZM210.331,142.5l13.287,71.34,16.878-29.8-11.626-62.4Z" transform="translate(71.775 -16.871)" fill="#0b2238"/>
          <path id="Path_564" data-name="Path 564" d="M155.87,157.612,178.205,134.3l81.654-15.2-20.026,22.883Z" transform="translate(41.248 -16.629)" fill="#fff"/>
          <path id="Path_565" data-name="Path 565" d="M156.208,158.912a.965.965,0,0,1-.7-1.581l22.335-23.316a1.059,1.059,0,0,1,.522-.284l81.654-15.2a.937.937,0,0,1,1.013.459.981.981,0,0,1-.111,1.123l-20.026,22.9a1.091,1.091,0,0,1-.554.316l-83.928,15.5Zm22.826-23.395-20.057,20.942,80.673-15.027,18-20.564Z" transform="translate(40.908 -16.969)" fill="#0b2238"/>
          <path id="Path_566" data-name="Path 566" d="M227.487,168.34a.964.964,0,0,1-.775-.4l-18.188-25.093a.975.975,0,0,1,1.581-1.139l16.562,22.847L228.36,119.4a.936.936,0,0,1,1.013-.918.949.949,0,0,1,.918,1l-1.835,47.976a.949.949,0,0,1-.68.886.9.9,0,0,1-.288,0Z" transform="translate(71.78 -16.986)" fill="#0b2238"/>
          <path id="Path_567" data-name="Path 567" d="M218.46,202.809a.981.981,0,0,1-.965-.949l-1.076-56.818a.965.965,0,0,1,.949-.981.936.936,0,0,1,.981.949l1.076,56.818a.981.981,0,0,1-.949.981Z" transform="translate(76.477 -2.102)" fill="#0b2238"/>
          <path id="Path_568" data-name="Path 568" d="M234.6,172.348a.949.949,0,0,1-.87-.57l-13.461-29.6a.966.966,0,1,1,1.756-.807l13.461,29.615a.949.949,0,0,1-.474,1.265.98.98,0,0,1-.411.095Z" transform="translate(78.667 -3.989)" fill="#0b2238"/>
          <path id="Path_569" data-name="Path 569" d="M184.832,135.172l-7.672,7.609,2.516,13.477,9.38-1.739-2.516-13.477,8.257-7.735Z" transform="translate(53.634 -8.357)" fill="#fd6b3b"/>
          <path id="Path_570" data-name="Path 570" d="M135.523,142.331c-13.272,5.6-28.172,37.173-7.514,62.008,21.276,25.578,51.8,29.944,82.349,26.748,18.508-1.945,24.992-6.47,24.992-6.47l-2.942-15.47s-7.592,2.135-32.174-3.385c-18.586-4.16-35.955-18-40.321-22.841-8.019-8.89,1.059-37.015,1.059-37.015S152.918,135.007,135.523,142.331Z" transform="translate(19.091 -4.581)" fill="#1765a6"/>
          <path id="Path_571" data-name="Path 571" d="M213.409,199.921c-59.018,0-73.979-40.668-74.124-41.127a.949.949,0,0,1,.585-1.234.981.981,0,0,1,1.234.585c.126.411,14.727,39.8,72.3,39.8h.6a.965.965,0,0,1,0,1.914Z" transform="translate(31.561 5.723)" fill="#0b2238"/>
          <path id="Path_572" data-name="Path 572" d="M190.63,185.751a10.582,10.582,0,0,0-.886,8.194,14.758,14.758,0,0,0,3.954,7.276,51.423,51.423,0,0,0,13.16-4.413c6.9-3.4,9.838-7.514,10.234-8.6,1.187-3.16-.68-3.432-.68-3.432s.332-2.421-1.139-3.4c-1.076-.712-2.562.569-2.562.569a2.1,2.1,0,0,0-1.581-1.835c-1.423-.253-4.208,4.1-6.453,5.188a24.011,24.011,0,0,1-4.034,1.581s2.072-3.161.554-3.828-3.306,1.423-5.8,2.057a24.165,24.165,0,0,1-4.762.648Z" transform="translate(60.695 18.863)" fill="#ef6744"/>
          <path id="Path_573" data-name="Path 573" d="M242.86,192.667a.965.965,0,0,1,0-1.914c65.852-3.448,81.558-49.812,81.7-50.286a.965.965,0,0,1,1.835.585c-.158.49-16.2,48.1-83.425,51.614Z" transform="translate(91.369 -4.552)" fill="#2755a3"/>
          <path id="Path_574" data-name="Path 574" d="M150.6,124.989a5.294,5.294,0,0,0-.269-.459Z" transform="translate(38.024 -13.465)" fill="none"/>
          <path id="Path_575" data-name="Path 575" d="M160.779,132.2l-.174-4.177s-2.99.364-4.065-1.282l-.269-.459c-1.076-1.8-5.267-8.051-8.526-2.594a16.609,16.609,0,0,0-2.8,10.139c.3,2.72,1.455,3.733.886,6.217a.46.46,0,0,1,0,.158c-.474,1.581-2.357,2.784-3.16,3.369l-.221.68-2.325,7.007s1.059,2.674,5.379,3.038a6.327,6.327,0,0,0,5.379-2.057l2.04-7.688c3.16-.807,8.32-3.069,9.7-4.983C164.084,137.394,160.779,132.2,160.779,132.2Z" transform="translate(32.084 -15.224)" fill="#ef6744"/>
          <path id="Path_576" data-name="Path 576" d="M141.838,135.08l-.158.474C141.82,135.338,141.918,135.16,141.838,135.08Z" transform="translate(32.991 -7.326)"/>
          <path id="Path_577" data-name="Path 577" d="M141.712,135.38l-.08.158h0Z" transform="translate(32.962 -7.152)"/>
          <path id="Path_578" data-name="Path 578" d="M161.757,121.626c-2.895-3.16-5.033-.569-5.033-.569s-1.471-6.154-5.41-6.549-6.137,4.857-6.137,4.857a9.887,9.887,0,0,0-9.807,2.025c-4.16,4.081-.819,12.449-.819,12.449s-4.24,1.44-3.053,7.1c1.771,8.478,13.082,8.985,15.96,6.928l.234-.158c.87-.585,2.752-1.724,3.16-3.369a.46.46,0,0,0,0-.158c.569-2.484-.585-3.5-.886-6.217a16.609,16.609,0,0,1,2.8-10.139c3.259-5.457,7.451.791,8.526,2.594a5.3,5.3,0,0,1,.269.459S164.663,124.789,161.757,121.626Z" transform="translate(26.945 -19.309)" fill="#0b2238"/>
          <path id="Path_579" data-name="Path 579" d="M151.673,131.154a1.99,1.99,0,0,1-1.044-.284.49.49,0,0,1,.554-.791s.775.459,1.851-.569a.481.481,0,0,1,.665.7,2.958,2.958,0,0,1-2.025.949Z" transform="translate(38.116 -10.645)"/>
          <path id="Path_580" data-name="Path 580" d="M146.127,130.286a.491.491,0,0,1-.474-.427,12.306,12.306,0,0,1,.126-3.385c.585-2.99,2.057-3.16,2.23-3.16h0a.459.459,0,0,1,.474.474.474.474,0,0,1-.459.49s-.886.174-1.3,2.293a11.674,11.674,0,0,0-.126,3.16.49.49,0,0,1-.411.537Z" transform="translate(35.267 -14.175)"/>
          <path id="Path_581" data-name="Path 581" d="M148.05,128.189a.459.459,0,0,1-.474-.459,1.914,1.914,0,0,1,1.581-2.12.5.5,0,0,1,.506.459.474.474,0,0,1-.443.506c-.76,0-.76,1.013-.743,1.123a.474.474,0,0,1-.474.49Z" transform="translate(36.413 -12.836)"/>
        </g>
        <g id="other_details" data-name="other details" transform="translate(266.88 228.352)">
          <path id="Path_582" data-name="Path 582" d="M260.722,297.67a4.459,4.459,0,0,0,0,.459Z" transform="translate(-164.631 -141.081)" fill="#ef6744"/>
          <path id="Path_583" data-name="Path 583" d="M323.169,375.906a32.179,32.179,0,0,0,.126-3.354c-.633-35.607-36.967-70.486-39.039-73.728a6.178,6.178,0,0,1-.3-.554h-.076l.648,2.12s-3.432,2.309-10.487,2.2a22.035,22.035,0,0,1-10.769-3.29c.9,13.477,3.528,53.561,2.863,58.306-.791,5.71-1.914,12.8-3.16,14.047-7.592,7.592-6.327,12.655-6.327,12.655l16.2-.351a4.587,4.587,0,0,0-1.345,5.9s30.276-.632,34.8-.632a23.6,23.6,0,0,0,10.092-1.581c-.158.49-.332.981-.537,1.5-2.088,4.967-10.472,5.647-15.169,5.632a.854.854,0,0,0-.411,1.581c4.192,2.23,12.844,5.52,19.71-1.377C325.763,389.14,324.529,380.683,323.169,375.906Z" transform="translate(-167.047 -140.732)" fill="#1765a6"/>
          <path id="Path_584" data-name="Path 584" d="M260.835,299.5h0a8.594,8.594,0,0,0-.095-1.581Z" transform="translate(-164.616 -140.935)" fill="#2755a3"/>
          <path id="Path_585" data-name="Path 585" d="M281.55,300.464l-.949-3.006-2.009.095c-5.619,3.385-13.952,3.006-18.032-3.021h0l.316,5v.459a9.676,9.676,0,0,0,.095,1.581,22.034,22.034,0,0,0,10.769,3.29c7.055.111,10.487-2.2,10.487-2.2Z" transform="translate(-164.722 -142.907)" fill="#c82c2f"/>
          <path id="Path_586" data-name="Path 586" d="M281.04,289.873a23.363,23.363,0,0,1-2.421-15.028l-5.394-3.5a11.341,11.341,0,0,0-8.384,10.535,27.857,27.857,0,0,1-1.455,7.387c-2.452,1.8-2.692-7.909-2.863-9.68s-.87-1.423-1.377-1.059-.474,4.84-.234,8.526c.819,12.765-.585,12.733.87,16.91a13.427,13.427,0,0,0,1.835,4.049c4.081,6.027,12.417,6.406,18.032,3.021a11.072,11.072,0,0,0,5.619-8.368C285.754,297.687,284.552,296.107,281.04,289.873Z" transform="translate(-165.777 -156.394)" fill="#1765a6"/>
          <path id="Path_587" data-name="Path 587" d="M279.743,325.544c4,7.909,7.387,10.725,10.455,12.86,2.642,1.851,9.19,1.076,7.15-4.461s-5.726-8.019-8.352-14.9c-1.676-4.429-4.448-8.668-6.486-8.083S275.744,317.651,279.743,325.544Z" transform="translate(-154.467 -133.38)" fill="#0b2238"/>
          <path id="Path_588" data-name="Path 588" d="M295.458,328s-4.508,1.3-1.2,10.977,7.514,11.579,7.514,11.579a50.349,50.349,0,0,0-2.215-11.658A93.554,93.554,0,0,0,295.458,328Z" transform="translate(-145.821 -123.434)" fill="#0b2238"/>
          <path id="Path_589" data-name="Path 589" d="M267.084,272.067s4.634-2.246,6.5-.174-.854,5.695-2.4,6.327a3.16,3.16,0,0,1-3.97-2.072,7.375,7.375,0,0,1-.126-4.081Z" transform="translate(-161.059 -156.589)" fill="#0b2238"/>
          <path id="Path_590" data-name="Path 590" d="M269.208,287.624a.49.49,0,0,1-.459-.316,4.746,4.746,0,0,1,0-4.3,2.263,2.263,0,0,1,1.8-.854.49.49,0,0,1,0,.965h0a1.281,1.281,0,0,0-1,.474c-.3.442-.537,1.377.174,3.4a.491.491,0,0,1-.3.617Z" transform="translate(-160.256 -150.111)" fill="#0b2238"/>
          <path id="Path_591" data-name="Path 591" d="M271.436,288.968a.68.68,0,0,1,.617-.855,6.912,6.912,0,0,1,7.293,4.745,142.413,142.413,0,0,1,4.745,14.078,4.415,4.415,0,0,1,.143,1.977,6.027,6.027,0,0,1-5.394,5.3c-2.847.442-8.289-1.3-8.842-6.137s.819-12.655,1.313-15.043a10.33,10.33,0,0,0,.126-4.065Z" transform="translate(-159.305 -146.662)" fill="#0b2238"/>
          <rect id="Rectangle_195" data-name="Rectangle 195" width="42.599" height="103.514" transform="translate(33.626 143.887)" fill="#1765a6"/>
          <path id="Path_592" data-name="Path 592" d="M250.351,334.182a66.061,66.061,0,0,0-2.878-14.632,8.527,8.527,0,0,0,1.5-4.24c.332-3.16-2.009-8.763-4.745-13.889a11.354,11.354,0,0,0,4.35.474,94.907,94.907,0,0,1,2.594,16.72,188.234,188.234,0,0,1,.427,23.948h5.537c.949-9.491,3.038-24.154,7.577-34.674a99.448,99.448,0,0,0,7.243-22.683,9.113,9.113,0,0,0,2.657-1.423c8.368-6.327,7.5-17.305,6.865-21.213a1.882,1.882,0,0,0-1.661-1.581,1.945,1.945,0,0,1-.965-3.448l1.581-1.25a1.914,1.914,0,0,0,.68-1.945,78.318,78.318,0,0,0-5.394-15.451,198.859,198.859,0,0,0-10.345-18.712,1.962,1.962,0,0,0-1.455-.9l-2.373-.234,1.44-3.654a1.882,1.882,0,0,0,0-1.581c-.411-.9-1.219-2.594-2.436-4.935s-3.432-6.327-5.033-9.206a1.945,1.945,0,0,0-3.464.143,29.152,29.152,0,0,0-2.107,6.454c-1.012,5.251-.585,7.213-1.771,19.188a181.309,181.309,0,0,0-.981,18.255,1.93,1.93,0,0,0,1.219,1.772l2.575,1.044-1.581,1.139a1.914,1.914,0,0,0-.728,1.977c.554,2.5,1.945,8.545,3.733,14.711s7.783,18.776,15.122,20.9a99.249,99.249,0,0,1-6.834,20.9,88.953,88.953,0,0,0-4.935,16.182c0-1.329-.174-2.705-.284-4.1a95.373,95.373,0,0,0-3.16-18.824,18.586,18.586,0,0,0,4.381-16.941c-2.943-11.326-17.638-30.055-26.243-36.1s-10.709-8.621-10.709-8.621-1.676,3.369-3.16,2.531-2.107-5.046-3.56-5.457-10.709-7.15-12.386-5.046.206,12.18,10.693,23.3,14.078,12.655,16.8,23.727c.522,2.107,1.123,4.16,1.8,6.137-7.257-3.606-15.091-10.171-19.44-13.272a50.422,50.422,0,0,0-7.767-4.331A1.945,1.945,0,0,0,200,267.445a57.485,57.485,0,0,0,5.473,14.806c6.087,11.958,10.282,12.655,16.577,19.946s8.194,13,14.9,17.4a10.583,10.583,0,0,0,6.549,2.12,66.533,66.533,0,0,1,2.388,12.844c.3,2.974.554,5.6.743,7.909H251C250.936,340.113,250.635,337.346,250.351,334.182Z" transform="translate(-199.974 -198.678)" fill="#fec8cb"/>
          <path id="Path_593" data-name="Path 593" d="M295.074,240.865a39.546,39.546,0,0,0-18.08,11.215c-5.568,6-14.379,10.567-17.5,12.085a1.581,1.581,0,0,0-.87,1.787l.9,4.3-2.784-1.581a1.581,1.581,0,0,0-1.977.332c-2.278,2.531-8.447,9.792-10.851,16.672-1.676,4.745-1.282,7.909,0,10.171a79.937,79.937,0,0,0-4.651,11.832c-1.091,3.575-1.99,7.071-2.768,10.345h4.461c.7-2.91,1.5-5.979,2.452-9.08a78.522,78.522,0,0,1,3.764-9.823l.537.316c2.832,1.581,9.3-.234,12.655-1.345a1.581,1.581,0,0,0,.791-2.5l-4.508-6.169,6.087,4.745a1.581,1.581,0,0,0,2.262-.253c3.16-4,13.636-17.131,19.693-28.378,5-9.316,9.792-17.954,12.274-22.383a1.581,1.581,0,0,0-1.9-2.294Z" transform="translate(-178.72 -174.186)" fill="#fec8cb"/>
          <path id="Path_594" data-name="Path 594" d="M250.669,283.448h0a.427.427,0,0,1-.4-.459c1.313-15.533-1.581-23.727-8.114-40.969-6.327-16.577-8.545-41.238-8.558-41.491a.411.411,0,0,1,.379-.459.443.443,0,0,1,.474.379c0,.253,2.215,24.8,8.51,41.27,6.612,17.305,9.491,25.626,8.162,41.348a.427.427,0,0,1-.458.38Z" transform="translate(-180.409 -197.866)" fill="#fff"/>
          <path id="Path_595" data-name="Path 595" d="M248.964,286.921a.427.427,0,0,1-.4-.284c0-.143-5.884-14.9-10.2-26.432s-10.282-16.767-19.14-22.019-18.1-18.223-18.175-18.35a.411.411,0,0,1,.095-.585.427.427,0,0,1,.6.095c.095.126,9.158,12.924,17.909,18.112,9.032,5.331,15.106,10.725,19.5,22.446s10.156,26.274,10.2,26.432a.427.427,0,0,1-.234.554Z" transform="translate(-199.393 -186.755)" fill="#fff"/>
          <path id="Path_596" data-name="Path 596" d="M243.8,294.138a.4.4,0,0,1-.332-.158,79.7,79.7,0,0,1-7.909-11.183c-1.914-3.4-8.859-15.074-17.937-22.287-7.909-6.327-16.388-17.653-16.482-17.764a.442.442,0,0,1,.7-.522c.08.126,8.447,11.341,16.324,17.606,9.19,7.308,16.213,19.108,18.159,22.556a77.5,77.5,0,0,0,7.783,11.072.411.411,0,0,1,0,.6.364.364,0,0,1-.3.08Z" transform="translate(-199.322 -173.408)" fill="#fff"/>
          <path id="Path_597" data-name="Path 597" d="M242.65,296.959h-.126a.411.411,0,0,1-.284-.537c.126-.379,3.16-9.333,14.537-19.156a158.759,158.759,0,0,0,22.51-24.376l.4-.522c3.638-4.745,11.594-10.6,11.927-10.836a.424.424,0,0,1,.506.68c-.08,0-8.194,6.042-11.752,10.678l-.4.522A160.191,160.191,0,0,1,257.33,277.93c-11.247,9.634-14.236,18.666-14.236,18.76a.459.459,0,0,1-.442.269Z" transform="translate(-175.395 -173.794)" fill="#fff"/>
          <rect id="Rectangle_196" data-name="Rectangle 196" width="42.614" height="1.708" transform="translate(33.609 149.044)" fill="#fff"/>
          <rect id="Rectangle_197" data-name="Rectangle 197" width="42.614" height="1.708" transform="translate(33.609 154.802)" fill="#fff"/>
        </g>
      </g>
      <path id="Path_914" data-name="Path 914" d="M126.808,108.878h-.172l-5.629-.961a7.1,7.1,0,0,1-5.955-7.1V99.9a5.15,5.15,0,0,0-4.411-5.15l-.979-.117a7.173,7.173,0,0,1-6.195-6.349l-.378-4.342a1.046,1.046,0,0,1,.943-1.133,1.064,1.064,0,0,1,1.133.961l.378,4.324a5.15,5.15,0,0,0,4.393,4.565l.979.117a7.173,7.173,0,0,1,6.246,7.156v.91a5.033,5.033,0,0,0,4.2,5.033l5.629.961a1.034,1.034,0,1,1-.172,2.059Z" transform="translate(-51.638 108.852)" fill="#6f5fa6"/>
      <path id="Path_915" data-name="Path 915" d="M305.1,109.755h-.154a1.046,1.046,0,0,1-.892-1.171l.789-5.646a7.122,7.122,0,0,1,6.864-6.161h.927A5.033,5.033,0,0,0,317.7,92.2l.1-.979a7.191,7.191,0,0,1,6.281-6.4l4.324-.5a1.064,1.064,0,0,1,1.149.91,1.046,1.046,0,0,1-.909,1.171l-4.324.5a5.15,5.15,0,0,0-4.448,4.53l-.085.979a7.14,7.14,0,0,1-6.967,6.438h-.927A5.011,5.011,0,0,0,307,103.185l-.789,5.663A1.03,1.03,0,0,1,305.1,109.755Z" transform="translate(260.821 -5.953)" fill="#6f5fa6"/>
      <path id="Path_916" data-name="Path 916" d="M166.272,76.65a1.03,1.03,0,0,1-.789-.361l-3.759-4.308a7.1,7.1,0,0,1-.1-9.267l.585-.686a5.15,5.15,0,0,0-.206-6.71l-.686-.721a7.173,7.173,0,0,1-.721-8.923l2.458-3.6a1.046,1.046,0,1,1,1.716,1.185l-2.458,3.587a5.15,5.15,0,0,0,.515,6.333l.67.7a7.156,7.156,0,0,1,.309,9.49l-.6.686a5.033,5.033,0,0,0,0,6.555l3.863,4.324a1.046,1.046,0,0,1-.1,1.476,1.064,1.064,0,0,1-.691.242Z" transform="translate(3.879 24.285)" fill="#6f5fa6"/>
      <path id="Path_917" data-name="Path 917" d="M245.405,80.823a1.046,1.046,0,0,1-1.046-1.013l-.206-5.7a7.1,7.1,0,0,1,5.736-7.276l.91-.172a5.15,5.15,0,0,0,4.05-5.354v-.979a7.191,7.191,0,0,1,5.063-7.4l4.169-1.252a1.053,1.053,0,1,1,.6,2.007l-4.169,1.252a5.15,5.15,0,0,0-3.569,5.15v.979a7.122,7.122,0,0,1-5.736,7.551l-.892.188a5.033,5.033,0,0,0-4.068,5.15l.224,5.715a1.064,1.064,0,0,1-1.013,1.082Z" transform="translate(104.385 -51.601)" fill="#6f5fa6"/>
    </g>
  </g>
</svg>
